<?xml version="1.0" encoding="UTF-8"?>
<svg version="1.1" xmlns="http://www.w3.org/2000/svg" width="560" height="190">
<path d="M0 0 C1.19407882 2.43000316 2.08000035 4.5932921 2.91015625 7.140625 C3.41837474 8.59346979 3.92768666 10.04593246 4.43798828 11.49804688 C4.69461243 12.24465576 4.95123657 12.99126465 5.21563721 13.76049805 C6.45682265 17.30431381 7.82144571 20.79818049 9.18359375 24.296875 C9.7212609 25.69167965 10.25836572 27.08670119 10.79492188 28.48193359 C11.06361084 29.17986023 11.3322998 29.87778687 11.60913086 30.59686279 C15.84031815 41.59476982 19.9921633 52.59973573 23.81347656 63.74829102 C25.94881405 69.95013049 28.3692158 75.99073504 31 82 C31.33644531 82.82886719 31.67289062 83.65773438 32.01953125 84.51171875 C34.61367292 90.76453035 37.16799544 95.33411497 43.1875 98.875 C47.8188881 100.24163911 52.20820028 100.81869945 57 100 C58.36527137 99.04406493 59.70452728 98.04858391 61 97 C61.66 97 62.32 97 63 97 C63.226875 96.34 63.45375 95.68 63.6875 95 C64.74236539 92.58887911 65.77149469 90.7741321 67.21484375 88.6171875 C70.71513206 83.07185085 73.25279946 77.12190246 75.875 71.125 C76.4016626 69.93060303 76.9283252 68.73620605 77.47094727 67.50561523 C81.32183246 58.70892148 84.89818939 49.83694437 88.29150391 40.85595703 C95.11687022 22.9764137 101.30208579 10.27582317 118 0.1875 C130.24840611 -4.66082742 141.90489075 -3.88660625 154 1 C172.27180594 10.34322301 178.09587874 31.10710401 185 49 C185.36432129 49.94294922 185.72864258 50.88589844 186.10400391 51.85742188 C187.69029905 55.96826852 189.27282158 60.0805284 190.84887695 64.1953125 C193.43879283 70.95598281 196.04968949 77.70795954 198.6796875 84.453125 C199.15361435 85.66905334 199.15361435 85.66905334 199.63711548 86.9095459 C200.90271465 90.15596197 202.16857077 93.40227323 203.43731689 96.64746094 C204.32403546 98.91553341 205.20901024 101.18428004 206.09375 103.453125 C206.35791718 104.12708313 206.62208435 104.80104126 206.89425659 105.49542236 C211.40695734 117.08172524 211.40695734 117.08172524 211 124 C208.65472696 126.34527304 202.8366726 125.18541859 199.6875 125.1875 C198.72392578 125.19974609 197.76035156 125.21199219 196.76757812 125.22460938 C195.83751953 125.22654297 194.90746094 125.22847656 193.94921875 125.23046875 C193.09674561 125.23457764 192.24427246 125.23868652 191.3659668 125.24291992 C188.73302862 124.97258936 187.19064116 124.48262688 185 123 C183.93847656 121.28613281 183.93847656 121.28613281 183.140625 119.203125 C182.83350586 118.4198584 182.52638672 117.6365918 182.20996094 116.82958984 C181.89317383 115.9783252 181.57638672 115.12706055 181.25 114.25 C180.74001465 112.92863037 180.74001465 112.92863037 180.21972656 111.58056641 C177.31081921 103.98775727 174.52597307 96.34519524 171.79003906 88.68847656 C169.97032158 83.59975979 168.05695359 78.56447868 166.03125 73.55419922 C164.19561863 69.00770883 162.41392179 64.4400218 160.625 59.875 C160.23143311 58.87597656 159.83786621 57.87695312 159.43237305 56.84765625 C157.6547902 52.31774569 155.90157845 47.78827806 154.29296875 43.1953125 C150.55588905 31.70555236 150.55588905 31.70555236 141.8671875 23.89453125 C135.48829229 21.41865497 130.75980748 21.8379758 124.4375 24.5 C116.89943202 29.27859666 114.17672024 37.69718955 111.31347656 45.72509766 C109.44229405 50.94971859 107.23147442 55.92045911 104.82104492 60.92333984 C102.1151183 66.6096967 99.73607081 72.41326103 97.375 78.25 C90.88458236 94.2503257 90.88458236 94.2503257 88 100 C87.5771875 100.84304687 87.154375 101.68609375 86.71875 102.5546875 C81.20824246 112.62667072 72.68519978 120.40442305 61.62109375 123.7109375 C51.66365588 125.99625111 39.17201687 126.09012721 29.953125 121.234375 C21.82087858 116.09479526 15.35564422 110.63352021 11.1328125 101.8125 C10.79299347 101.11688965 10.45317444 100.4212793 10.10305786 99.70458984 C6.2413345 91.64955214 3.04296831 83.34593337 -0.125 75 C-0.71152004 73.47368164 -1.29875878 71.94763926 -1.88671875 70.421875 C-4.96948124 62.40486888 -8.00278587 54.36936753 -10.99136353 46.31677246 C-12.80142223 41.45899298 -14.77369438 36.68151714 -16.7890625 31.90625 C-20.23984001 23.62438399 -23.31650467 15.2048529 -26.3125 6.75 C-26.71263306 5.62235229 -26.71263306 5.62235229 -27.12084961 4.47192383 C-29 -0.87509634 -29 -0.87509634 -29 -2 C-25.10543151 -2.25563842 -21.20963331 -2.47484769 -17.3125 -2.6875 C-15.65831055 -2.79674805 -15.65831055 -2.79674805 -13.97070312 -2.90820312 C-12.90400391 -2.96298828 -11.83730469 -3.01777344 -10.73828125 -3.07421875 C-9.26935425 -3.16062622 -9.26935425 -3.16062622 -7.77075195 -3.2487793 C-4.29051864 -2.93629734 -2.68768142 -2.24623059 0 0 Z " fill="#F37820" transform="translate(349,3)"/>
<path d="M0 0 C6.34799112 5.31459722 10.81661386 10.43942323 14.5 17.875 C14.91886475 18.69403809 15.33772949 19.51307617 15.76928711 20.35693359 C19.31726444 27.35229275 22.66876736 34.4432035 26.00268555 41.54248047 C28.62875221 47.11223742 31.39105756 52.5797892 34.3125 58 C37.44931475 63.82521515 40.42140892 69.70603691 43.25 75.6875 C43.59691895 76.41614258 43.94383789 77.14478516 44.30126953 77.89550781 C46.6875 83.0006467 46.6875 83.0006467 46.6875 85.25 C47.3475 85.58 48.0075 85.91 48.6875 86.25 C49.76612057 88.23693263 50.66523679 90.27725899 51.58984375 92.33984375 C52.68139198 94.56735191 52.68139198 94.56735191 55.6875 96.25 C59.51498905 96.06767408 59.51498905 96.06767408 62.6875 94.25 C62.79152776 91.28323214 62.83110979 88.33897798 62.8293457 85.37158203 C62.83455734 83.97407715 62.83455734 83.97407715 62.83987427 82.54833984 C62.84724578 80.51795173 62.85258369 78.48755547 62.85616493 76.45715714 C62.86330549 73.246914 62.87895335 70.03682594 62.89750671 66.82662964 C62.9500934 57.69677853 62.99797825 48.56701104 63.01342773 39.43701172 C63.02348671 33.85954971 63.05275924 28.2824751 63.09474754 22.70516586 C63.10709356 20.57528483 63.11217227 18.44534916 63.10994911 16.3154335 C63.10760675 13.33893479 63.12968163 10.36355499 63.1574707 7.38720703 C63.14756859 6.05923599 63.14756859 6.05923599 63.13746643 4.70443726 C63.22920592 -1.25892618 63.22920592 -1.25892618 65.59768677 -3.79681396 C67.80630622 -4.80418878 69.2738395 -5.13626708 71.69140625 -5.1484375 C72.43197266 -5.15230469 73.17253906 -5.15617188 73.93554688 -5.16015625 C74.69931641 -5.14855469 75.46308594 -5.13695312 76.25 -5.125 C77.01763672 -5.13660156 77.78527344 -5.14820313 78.57617188 -5.16015625 C84.16929929 -5.13089839 84.16929929 -5.13089839 86.40521336 -3.4874115 C87.98969199 -1.34055034 88.06650427 -0.2040433 88.07518005 2.44702148 C88.08508469 3.30190659 88.09498932 4.15679169 88.10519409 5.0375824 C88.10069244 5.97264114 88.0961908 6.90769989 88.09155273 7.87109375 C88.09841599 8.85848038 88.10527924 9.845867 88.11235046 10.86317444 C88.13069762 14.13809474 88.12676693 17.41253915 88.12109375 20.6875 C88.12565437 22.96614742 88.13095959 25.24479346 88.13697815 27.5234375 C88.14592676 32.30848765 88.14346926 37.0933711 88.13354492 41.87841797 C88.12210041 47.99029605 88.14218867 54.10159251 88.17146206 60.21339417 C88.18988098 64.92510603 88.18951943 69.63668032 88.18382454 74.34841919 C88.18367177 76.60011608 88.18967943 78.85182256 88.20211601 81.10348511 C88.21711719 84.26726733 88.2062787 87.42999894 88.18920898 90.59375 C88.20371094 91.97204735 88.20371094 91.97204735 88.21850586 93.37818909 C88.1238443 101.82429757 86.19549435 109.94847965 80.3125 116.25 C72.37761964 123.32386142 63.61692964 124.76518919 53.3125 124.546875 C42.89764241 123.69393408 34.89068134 119.78782714 27.95166016 111.86669922 C20.25675621 102.02590086 15.80375548 89.27698995 10.71191406 77.99365234 C8.13368922 72.30105527 5.4535553 66.72305868 2.4375 61.25 C-0.2606742 56.33625187 -2.62411504 51.40179717 -4.8125 46.25 C-7.19582011 40.68778158 -9.69137895 35.20611016 -12.4375 29.8125 C-12.75009766 29.16732422 -13.06269531 28.52214844 -13.38476562 27.85742188 C-14.88937789 24.97698461 -15.83567116 23.454876 -18.8671875 22.15234375 C-21.33339266 22.01410046 -21.33339266 22.01410046 -22.94362545 23.51220036 C-25.34661663 26.56282118 -24.68150636 30.43260875 -24.62133789 34.15600586 C-24.61856339 35.0668544 -24.61578888 35.97770294 -24.6129303 36.91615295 C-24.60062632 39.93262535 -24.56753784 42.948526 -24.53515625 45.96484375 C-24.52448283 48.05846924 -24.51542532 50.15210355 -24.50791931 52.2457428 C-24.48510484 57.76317951 -24.44605334 63.2803652 -24.4019165 68.79766846 C-24.33181805 77.62578183 -24.27648355 86.45388435 -24.23956108 95.28219795 C-24.2228373 98.36892696 -24.19327776 101.4553566 -24.16285706 104.54197693 C-24.15239654 106.43284831 -24.14243606 108.32372255 -24.13305664 110.21459961 C-24.12115295 111.07447479 -24.10924927 111.93434998 -24.09698486 112.82028198 C-24.09460564 114.00842247 -24.09460564 114.00842247 -24.09217834 115.2205658 C-24.0864383 115.90617049 -24.08069826 116.59177519 -24.07478428 117.29815578 C-24.36157707 119.65296362 -25.07535028 121.23416335 -26.3125 123.25 C-29.73076747 124.95913373 -33.54604763 124.43458479 -37.3125 124.4375 C-38.14523438 124.44974609 -38.97796875 124.46199219 -39.8359375 124.47460938 C-41.03089844 124.47750977 -41.03089844 124.47750977 -42.25 124.48046875 C-43.34634766 124.48663208 -43.34634766 124.48663208 -44.46484375 124.49291992 C-46.3125 124.25 -46.3125 124.25 -48.3125 122.25 C-48.58817959 120.43162823 -48.58817959 120.43162823 -48.62461853 118.18669128 C-48.64300781 117.33607117 -48.66139709 116.48545105 -48.68034363 115.60905457 C-48.69035904 114.67354263 -48.70037445 113.7380307 -48.71069336 112.77416992 C-48.72877045 111.79014191 -48.74684753 110.80611389 -48.76547241 109.79226685 C-48.82207874 106.52173706 -48.86328929 103.25125258 -48.90234375 99.98046875 C-48.93375635 97.70518318 -48.96529805 95.42989938 -48.9969635 93.15461731 C-49.06054821 88.37209901 -49.11527642 83.58956314 -49.1652832 78.80688477 C-49.23080412 72.7049465 -49.3290477 66.60402079 -49.43562984 60.50268078 C-49.51225546 55.79535939 -49.56552644 51.08797508 -49.61258125 46.38027382 C-49.63886531 44.13291303 -49.67355333 41.88563314 -49.71708488 39.63854027 C-50.13714679 17.06943114 -50.13714679 17.06943114 -44.3125 6.25 C-43.6525 6.25 -42.9925 6.25 -42.3125 6.25 C-42.05855469 5.64414063 -41.80460937 5.03828125 -41.54296875 4.4140625 C-38.94007998 -0.16371649 -33.68015445 -2.21813438 -28.9375 -4.0625 C-19.01235384 -5.94485531 -8.99592246 -4.75256281 0 0 Z " fill="#F37820" transform="translate(88.3125,4.75)"/>
<path d="M0 0 C1.10843262 -0.01210762 1.10843262 -0.01210762 2.23925781 -0.02445984 C3.80254814 -0.03825176 5.36586796 -0.04899566 6.92919922 -0.05688477 C8.50383539 -0.06833725 10.07843484 -0.0886809 11.65283203 -0.1184082 C24.93515556 -0.36862246 36.63759862 1.39770757 48.3125 8.23828125 C49.02792969 8.63402344 49.74335938 9.02976562 50.48046875 9.4375 C63.15995061 17.05391853 72.73821884 31.99729714 76.3125 46.23828125 C76.96688088 50.90693138 77.19563539 55.52812928 77.3125 60.23828125 C77.35246094 61.44355469 77.39242187 62.64882813 77.43359375 63.890625 C77.78889126 83.13939029 71.47095083 99.56564296 58.20703125 113.625 C47.34319389 123.43324183 32.87612424 128.76716542 18.3125 129.23828125 C17.09691406 129.27824219 15.88132812 129.31820312 14.62890625 129.359375 C-3.88036115 129.75395678 -20.52666807 126.82239791 -35.875 115.98828125 C-36.7721875 115.12203125 -36.7721875 115.12203125 -37.6875 114.23828125 C-37.6875 113.57828125 -37.6875 112.91828125 -37.6875 112.23828125 C-38.265 112.01140625 -38.8425 111.78453125 -39.4375 111.55078125 C-42.28489809 109.88979903 -43.80817193 107.92303564 -45.6875 105.23828125 C-45.6875 104.57828125 -45.6875 103.91828125 -45.6875 103.23828125 C-46.3475 103.23828125 -47.0075 103.23828125 -47.6875 103.23828125 C-57.1751078 85.09207993 -62.03607277 64.25080063 -56.0625 43.92578125 C-55.32705009 42.00743989 -54.5360644 40.1093394 -53.6875 38.23828125 C-53.25179687 37.21992187 -52.81609375 36.2015625 -52.3671875 35.15234375 C-49.14177668 28.15514105 -45.10951136 21.75798651 -39.6875 16.23828125 C-39.0275 16.23828125 -38.3675 16.23828125 -37.6875 16.23828125 C-37.3575 15.24828125 -37.0275 14.25828125 -36.6875 13.23828125 C-25.70131878 5.05743988 -13.76309984 0.1454477 0 0 Z M-23.8359375 34.70703125 C-32.16515672 46.37496703 -36.01836324 58.4141935 -33.6875 72.61328125 C-32.45780488 79.231567 -30.64367521 84.71636902 -26.6875 90.23828125 C-26.18669922 91.13160156 -26.18669922 91.13160156 -25.67578125 92.04296875 C-21.68240003 98.72334626 -14.28468631 103.66785556 -7.01171875 106.15234375 C-4.92244852 106.61054704 -2.80492776 106.93579157 -0.6875 107.23828125 C0.3025 107.56828125 1.2925 107.89828125 2.3125 108.23828125 C5.54560204 108.34765599 8.76985176 108.14220889 12 107.98828125 C12.87333984 107.96121094 13.74667969 107.93414062 14.64648438 107.90625 C21.96727935 107.56727368 27.97408114 105.88024265 34.3125 102.05078125 C35.3025 101.45265625 36.2925 100.85453125 37.3125 100.23828125 C37.3125 99.57828125 37.3125 98.91828125 37.3125 98.23828125 C37.90933594 97.98691406 38.50617188 97.73554687 39.12109375 97.4765625 C44.876944 94.22414801 49.35019052 86.19082171 51.34375 80.07421875 C55.2606748 64.56446008 53.01194275 51.98429724 45.3125 38.23828125 C44.3225 36.75328125 44.3225 36.75328125 43.3125 35.23828125 C42.6525 35.23828125 41.9925 35.23828125 41.3125 35.23828125 C41.126875 34.68140625 40.94125 34.12453125 40.75 33.55078125 C37.36735637 28.10913716 30.92380004 24.99176984 25.0078125 22.96484375 C19.89007381 21.9586076 14.89366152 21.83585764 9.6875 21.80078125 C8.70974609 21.79071045 7.73199219 21.78063965 6.72460938 21.77026367 C-4.84057457 21.90808407 -16.0439132 25.75328696 -23.8359375 34.70703125 Z " fill="#F37820" transform="translate(245.6875,-0.23828125)"/>
<path d="M0 0 C1.24394531 -0.03738281 2.48789063 -0.07476562 3.76953125 -0.11328125 C7.89170967 0.4002244 8.54117497 1.22701142 11.1875 4.3125 C12.35247485 6.14635099 13.45284707 8.02219343 14.5 9.92578125 C15.10070312 11.00923828 15.70140625 12.09269531 16.3203125 13.20898438 C17.24457031 14.89991211 17.24457031 14.89991211 18.1875 16.625 C19.4165168 18.85034319 20.64567958 21.07560577 21.875 23.30078125 C22.44734375 24.34443848 23.0196875 25.3880957 23.609375 26.46337891 C24.91653181 28.82329845 26.25697837 31.15567495 27.625 33.48046875 C29.1875 36.3125 29.1875 36.3125 29.1875 38.3125 C30.1775 38.3125 31.1675 38.3125 32.1875 38.3125 C32.46424561 37.77882812 32.74099121 37.24515625 33.02612305 36.6953125 C34.30568308 34.23259216 35.59030868 31.77254721 36.875 29.3125 C37.31005859 28.47332031 37.74511719 27.63414062 38.19335938 26.76953125 C40.64470337 22.08474051 43.21466201 17.54188283 46.06030273 13.08544922 C48.09220908 9.88949863 49.95901632 6.59391639 51.85546875 3.31640625 C53.1875 1.3125 53.1875 1.3125 55.1875 0.3125 C57.56152501 0.24133618 59.93750677 0.22840915 62.3125 0.25 C63.59382813 0.25902344 64.87515625 0.26804688 66.1953125 0.27734375 C67.67644531 0.29474609 67.67644531 0.29474609 69.1875 0.3125 C71.01966229 3.4486738 71.43629815 5.72563125 71.43041992 9.34057617 C71.43503487 10.83683784 71.43503487 10.83683784 71.43974304 12.36332703 C71.42896477 13.96818718 71.42896477 13.96818718 71.41796875 15.60546875 C71.41751053 16.70723953 71.41705231 17.80901031 71.4165802 18.94416809 C71.41356137 21.26999999 71.4056861 23.59582993 71.39331055 25.92163086 C71.37501712 29.49665418 71.37280115 33.07141907 71.37304688 36.64648438 C71.36813306 38.90364809 71.36230533 41.16081004 71.35546875 43.41796875 C71.35435593 44.49394821 71.3532431 45.56992767 71.35209656 46.67851257 C71.34571671 47.66656387 71.33933685 48.65461517 71.33276367 49.67260742 C71.32895187 50.54656662 71.32514008 51.42052582 71.32121277 52.32096863 C71.1875 54.3125 71.1875 54.3125 70.1875 55.3125 C67.85589945 55.41159302 65.52120058 55.44220504 63.1875 55.4375 C61.90875 55.44007813 60.63 55.44265625 59.3125 55.4453125 C56.1875 55.3125 56.1875 55.3125 55.1875 54.3125 C55.03035346 52.67993242 54.93664586 51.04114662 54.87109375 49.40234375 C54.82919922 48.41298828 54.78730469 47.42363281 54.74414062 46.40429688 C54.70482422 45.36337891 54.66550781 44.32246094 54.625 43.25 C54.58181641 42.20521484 54.53863281 41.16042969 54.49414062 40.08398438 C54.38768775 37.49363116 54.2856724 34.90317814 54.1875 32.3125 C53.76863525 32.9737085 53.34977051 33.63491699 52.91821289 34.31616211 C51.03014706 37.29495892 49.1401009 40.27249411 47.25 43.25 C46.59064453 44.29091797 45.93128906 45.33183594 45.25195312 46.40429688 C44.30932617 47.88833008 44.30932617 47.88833008 43.34765625 49.40234375 C42.76636963 50.31878662 42.18508301 51.23522949 41.58618164 52.17944336 C40.1875 54.3125 40.1875 54.3125 39.1875 55.3125 C33.89160177 56.08598808 28.43353915 56.64824714 23.1875 55.3125 C19.32934901 52.29105645 17.42068192 48.61824054 15.1875 44.3125 C13.85788929 42.08111093 12.52467703 39.85186313 11.1875 37.625 C10.1975 35.871875 9.2075 34.11875 8.1875 32.3125 C8.1875 39.5725 8.1875 46.8325 8.1875 54.3125 C5.18436252 55.81406874 2.39682478 55.40531204 -0.9375 55.375 C-2.21882813 55.36597656 -3.50015625 55.35695312 -4.8203125 55.34765625 C-6.30144531 55.33025391 -6.30144531 55.33025391 -7.8125 55.3125 C-7.83776605 47.64038798 -7.85533123 39.9682866 -7.86743164 32.29614258 C-7.87247377 29.68383381 -7.87930725 27.07152789 -7.88793945 24.45922852 C-7.90001036 20.71369732 -7.90572935 16.96820328 -7.91015625 13.22265625 C-7.91531754 12.04663345 -7.92047882 10.87061066 -7.92579651 9.65895081 C-7.92590981 8.03738319 -7.92590981 8.03738319 -7.92602539 6.38305664 C-7.928246 5.42597305 -7.93046661 4.46888947 -7.93275452 3.48280334 C-7.67456411 -1.17690945 -3.8888394 0.07609469 0 0 Z M7.1875 26.3125 C7.1875 27.9625 7.1875 29.6125 7.1875 31.3125 C7.5175 31.3125 7.8475 31.3125 8.1875 31.3125 C8.1875 29.6625 8.1875 28.0125 8.1875 26.3125 C7.8575 26.3125 7.5275 26.3125 7.1875 26.3125 Z M30.1875 43.3125 C31.1875 45.3125 31.1875 45.3125 31.1875 45.3125 Z " fill="#F37820" transform="translate(67.8125,134.6875)"/>
<path d="M0 0 C1.34384766 0.07250977 1.34384766 0.07250977 2.71484375 0.14648438 C3.65199219 0.20255859 4.58914063 0.25863281 5.5546875 0.31640625 C6.97201172 0.3947168 6.97201172 0.3947168 8.41796875 0.47460938 C10.7555294 0.60447386 13.09268295 0.73944495 15.4296875 0.87890625 C15.58368801 16.56893809 15.73171837 32.25901418 15.8726511 47.94916821 C15.93822832 55.23445251 16.00575545 62.51970898 16.07788086 69.80493164 C16.14074387 76.15508094 16.19994028 82.50525204 16.25474304 88.8554762 C16.28388557 92.21753344 16.31485781 95.57955127 16.35022163 98.9415493 C16.38878785 102.69562681 16.42087339 106.44970727 16.45141602 110.20385742 C16.46436203 111.3173204 16.47730804 112.43078339 16.49064636 113.57798767 C16.49768585 114.60297363 16.50472534 115.62795959 16.51197815 116.68400574 C16.52027429 117.57169238 16.52857042 118.45937902 16.53711796 119.37396526 C16.42589077 121.96743409 16.00474743 124.35102639 15.4296875 126.87890625 C11.56198295 128.1681411 7.89531434 128.02396331 3.8671875 128.00390625 C3.08666016 128.00777344 2.30613281 128.01164063 1.50195312 128.015625 C-4.31695752 128.00558374 -4.31695752 128.00558374 -6.5703125 126.87890625 C-6.5703125 85.29890625 -6.5703125 43.71890625 -6.5703125 0.87890625 C-4.11781157 -0.34734422 -2.72720815 -0.1553473 0 0 Z " fill="#F37820" transform="translate(6.5703125,0.12109375)"/>
<path d="M0 0 C2.95351946 0.01397564 4.62841825 0.13539354 7.375 1.3125 C9.83337549 2.49175242 9.83337549 2.49175242 12.71923828 1.26538086 C17.63559048 -0.24076046 22.51069004 -0.15580843 27.6171875 -0.18359375 C28.65134796 -0.19262222 29.68550842 -0.2016507 30.75100708 -0.21095276 C32.93114344 -0.2254111 35.11132275 -0.23433096 37.29150391 -0.23803711 C40.60784657 -0.24993844 43.92233022 -0.29917385 47.23828125 -0.34960938 C49.36457433 -0.35907448 51.49087874 -0.3663091 53.6171875 -0.37109375 C54.59871796 -0.39062607 55.58024841 -0.41015839 56.59152222 -0.43028259 C63.38020704 -0.3862826 68.31905441 1.00185876 73.75 5.1875 C78.96740071 11.74176932 78.07739076 20.43065788 77.5 28.3125 C77.43425781 29.45976562 77.36851562 30.60703125 77.30078125 31.7890625 C77.13740523 34.58979429 76.94654289 37.38890014 76.75 40.1875 C73.12 40.1875 69.49 40.1875 65.75 40.1875 C65.42 39.1975 65.09 38.2075 64.75 37.1875 C64.151875 37.67347656 63.55375 38.15945312 62.9375 38.66015625 C58.24703396 40.90767123 53.8847502 40.66196482 48.75 40.625 C47.76515625 40.64498047 46.7803125 40.66496094 45.765625 40.68554688 C41.30041862 40.68252984 38.53895472 40.66107181 34.65234375 38.328125 C32.20442884 35.57359241 31.37061902 33.84225644 30.75 30.1875 C31.07643192 25.49504115 31.83119247 22.18080544 35.0625 18.6875 C39.20794073 16.37376564 42.92784392 16.0365361 47.61328125 16.30859375 C48.49951172 16.35693359 49.38574219 16.40527344 50.29882812 16.45507812 C51.21083984 16.51115234 52.12285156 16.56722656 53.0625 16.625 C54.45952148 16.70331055 54.45952148 16.70331055 55.88476562 16.78320312 C58.17356353 16.9123148 60.46186186 17.04725415 62.75 17.1875 C61.05903386 15.08139647 60.21081171 14.25334892 57.49104309 13.86470032 C56.6094603 13.88912704 55.7278775 13.91355377 54.81958008 13.9387207 C53.31836357 13.96909172 53.31836357 13.96909172 51.78681946 14.00007629 C50.70861435 14.03743393 49.63040924 14.07479156 48.51953125 14.11328125 C47.41397385 14.13972214 46.30841644 14.16616302 45.1693573 14.19340515 C41.63319564 14.28127726 38.09804825 14.39039105 34.5625 14.5 C32.16735422 14.56324725 29.77217156 14.62511367 27.37695312 14.68554688 C21.50077989 14.83683578 15.6253002 15.00557512 9.75 15.1875 C9.75523682 15.90929443 9.76047363 16.63108887 9.76586914 17.37475586 C9.78657358 20.62482849 9.79963918 23.87488728 9.8125 27.125 C9.82087891 28.26130859 9.82925781 29.39761719 9.83789062 30.56835938 C9.84111328 31.64794922 9.84433594 32.72753906 9.84765625 33.83984375 C9.85289307 34.84007568 9.85812988 35.84030762 9.86352539 36.87084961 C9.75 39.1875 9.75 39.1875 8.75 40.1875 C6.58519203 40.2864294 4.41706215 40.317211 2.25 40.3125 C1.0640625 40.31507813 -0.121875 40.31765625 -1.34375 40.3203125 C-4.25 40.1875 -4.25 40.1875 -5.25 39.1875 C-5.35103255 36.38756403 -5.38970088 33.61281356 -5.3828125 30.8125 C-5.38376923 29.97283691 -5.38472595 29.13317383 -5.38571167 28.26806641 C-5.38639348 26.48925705 -5.38453917 24.71044523 -5.38037109 22.93164062 C-5.37502283 20.19916224 -5.38031605 17.46684824 -5.38671875 14.734375 C-5.38605797 13.0104163 -5.38477681 11.28645771 -5.3828125 9.5625 C-5.38483673 8.73959473 -5.38686096 7.91668945 -5.38894653 7.06884766 C-5.35971523 0.0443685 -5.35971523 0.0443685 0 0 Z M6.75 3.1875 C7.08 3.8475 7.41 4.5075 7.75 5.1875 C8.08 4.5275 8.41 3.8675 8.75 3.1875 C8.09 3.1875 7.43 3.1875 6.75 3.1875 Z M46.75 24.1875 C46.42 25.1775 46.09 26.1675 45.75 27.1875 C46.88701597 28.55282549 46.88701597 28.55282549 49.91015625 28.28515625 C51.19792969 28.27355469 52.48570312 28.26195312 53.8125 28.25 C55.10285156 28.24097656 56.39320313 28.23195312 57.72265625 28.22265625 C58.72167969 28.21105469 59.72070312 28.19945312 60.75 28.1875 C61.41 26.8675 62.07 25.5475 62.75 24.1875 C57.47 24.1875 52.19 24.1875 46.75 24.1875 Z " fill="#F37820" transform="translate(197.25,149.8125)"/>
<path d="M0 0 C2.2476891 -0.00435505 4.49338275 -0.04065645 6.74072266 -0.07861328 C15.29875836 -0.14663897 23.16841227 0.00080094 29.84643555 6.01806641 C35.45094744 11.82517234 37.93641748 19.59414339 38.07275391 27.56982422 C37.61943142 36.37019342 36.41021374 43.66060537 30.23681641 50.28076172 C24.94796421 55.02055934 20.66357594 55.53622557 13.65869141 55.57373047 C12.42478668 55.58228058 12.42478668 55.58228058 11.16595459 55.59100342 C9.42428877 55.6004477 7.68260513 55.60698513 5.94091797 55.61083984 C3.29183232 55.62051864 0.64353163 55.65153568 -2.00537109 55.68310547 C-3.70067901 55.68963868 -5.39599245 55.6948879 -7.09130859 55.69873047 C-7.87697205 55.71107727 -8.6626355 55.72342407 -9.47210693 55.73614502 C-16.02497441 55.7099441 -20.78512057 54.46524114 -25.66943359 49.80810547 C-30.95345558 42.72786478 -33.28803124 34.13724212 -32.98193359 25.37060547 C-31.68236639 16.9521701 -28.76506805 9.36558691 -21.98193359 3.99560547 C-14.65852679 0.02876012 -8.17000161 -0.00177185 0 0 Z M-13.98193359 17.37060547 C-16.57126413 21.32274155 -17.06344681 25.71694191 -16.98193359 30.37060547 C-16.09866255 34.24017385 -14.75495681 37.82455904 -12.98193359 41.37060547 C-7.99561714 43.03271095 -2.8281393 42.63900745 2.39306641 42.68310547 C3.53001953 42.71210938 4.66697266 42.74111328 5.83837891 42.77099609 C12.31642115 42.8817157 12.31642115 42.8817157 18.22509766 40.55419922 C22.33729194 35.54610204 22.50897052 29.55599733 22.01806641 23.37060547 C20.82442565 20.040976 19.79242538 18.04278099 17.12353516 15.72607422 C12.3333264 13.63525354 7.68492985 13.93755082 2.51806641 13.99560547 C0.96925781 13.97820312 0.96925781 13.97820312 -0.61083984 13.96044922 C-7.86052973 13.86797725 -7.86052973 13.86797725 -13.98193359 17.37060547 Z " fill="#F37820" transform="translate(460.98193359375,134.62939453125)"/>
<path d="M0 0 C3.96 0 7.92 0 12 0 C13.92896406 4.82241015 14.21939191 7.26253299 14.125 12.3125 C14.10695313 13.56675781 14.08890625 14.82101563 14.0703125 16.11328125 C14.04710937 17.06589844 14.02390625 18.01851562 14 19 C14.66 19.33 15.32 19.66 16 20 C16.33 19.34 16.66 18.68 17 18 C24.05114084 16.18999733 31.86916668 16.43458334 38.375 19.6875 C43.95638401 24.60443354 44.47179485 29.99329414 45 37 C45.12564861 40.33507303 45.14061826 43.66289812 45.125 47 C45.13080078 48.28583984 45.13080078 48.28583984 45.13671875 49.59765625 C45.12677331 55.87322669 45.12677331 55.87322669 44 57 C41.83519203 57.0989294 39.66706215 57.129711 37.5 57.125 C36.3140625 57.12757813 35.128125 57.13015625 33.90625 57.1328125 C31 57 31 57 30 56 C29.97345659 52.28771391 30.02875552 48.58763238 30.12695312 44.87695312 C30.19259345 40.15471128 29.83117723 36.44509296 28 32 C23.00359673 31.00071935 19.68718491 30.87960683 15 33 C13.77397509 35.45204982 13.90070761 37.01721683 13.9375 39.75390625 C13.94523437 40.69041016 13.95296875 41.62691406 13.9609375 42.59179688 C13.97382813 43.57212891 13.98671875 44.55246094 14 45.5625 C14.0253929 47.50124773 14.04646542 49.44005854 14.0625 51.37890625 C14.07410156 52.2407251 14.08570313 53.10254395 14.09765625 53.99047852 C14 56 14 56 13 57 C10.85692104 57.12537741 8.70921114 57.17574364 6.5625 57.1875 C5.38816406 57.20167969 4.21382813 57.21585938 3.00390625 57.23046875 C0 57 0 57 -2 55 C-1.34 55 -0.68 55 0 55 C-0.16233124 54.27693161 -0.32466248 53.55386322 -0.49191284 52.80888367 C-0.9729596 50.14948879 -1.12682646 47.75500171 -1.12939453 45.05786133 C-1.13254669 44.10369827 -1.13569885 43.14953522 -1.13894653 42.16645813 C-1.1369223 41.14859726 -1.13489807 40.13073639 -1.1328125 39.08203125 C-1.13376923 38.02843918 -1.13472595 36.97484711 -1.13571167 35.889328 C-1.13639093 33.6678359 -1.13455438 31.44634179 -1.13037109 29.22485352 C-1.12500326 25.81457097 -1.13033292 22.40441917 -1.13671875 18.99414062 C-1.13605824 16.83593721 -1.13477763 14.67773387 -1.1328125 12.51953125 C-1.13483673 11.49559769 -1.13686096 10.47166412 -1.13894653 9.41670227 C-1.13579437 8.4719957 -1.13264221 7.52728912 -1.12939453 6.55395508 C-1.12859894 5.72076248 -1.12780334 4.88756989 -1.12698364 4.02912903 C-1 2 -1 2 0 0 Z M13 20 C14 22 14 22 14 22 Z " fill="#F37820" transform="translate(331,133)"/>
<path d="M0 0 C1.26392578 -0.020625 2.52785156 -0.04125 3.83007812 -0.0625 C10.76281383 -0.0914921 16.15363253 0.23881509 22.4375 3.25 C22.4375 3.91 22.4375 4.57 22.4375 5.25 C23.0975 5.25 23.7575 5.25 24.4375 5.25 C24.56125 5.889375 24.685 6.52875 24.8125 7.1875 C25.01875 7.868125 25.225 8.54875 25.4375 9.25 C26.0975 9.58 26.7575 9.91 27.4375 10.25 C28.51018883 13.4680665 28.56673759 15.81293914 28.5703125 19.1953125 C28.57224609 20.93361328 28.57224609 20.93361328 28.57421875 22.70703125 C28.57035156 23.91746094 28.56648438 25.12789062 28.5625 26.375 C28.56830078 28.20224609 28.56830078 28.20224609 28.57421875 30.06640625 C28.57292969 31.22269531 28.57164062 32.37898438 28.5703125 33.5703125 C28.56918457 34.63523926 28.56805664 35.70016602 28.56689453 36.79736328 C28.4375 39.25 28.4375 39.25 27.4375 40.25 C25.64809028 40.34908783 23.85464492 40.37970379 22.0625 40.375 C21.08539063 40.37757813 20.10828125 40.38015625 19.1015625 40.3828125 C16.4375 40.25 16.4375 40.25 13.4375 39.25 C12.4475 39.745 12.4475 39.745 11.4375 40.25 C7.83928538 40.51752525 4.2320459 40.48158496 0.625 40.5 C-0.37337891 40.520625 -1.37175781 40.54125 -2.40039062 40.5625 C-11.66723295 40.61189023 -11.66723295 40.61189023 -15.5625 37.25 C-18.28693729 32.57953608 -18.08530568 27.74784934 -17 22.5625 C-14.90327797 19.18951238 -12.22728262 17.55974082 -8.5625 16.25 C-4.71170007 15.91776993 -0.97100094 16.184713 2.875 16.5 C3.89271484 16.56574219 4.91042969 16.63148438 5.95898438 16.69921875 C8.4538658 16.86320157 10.94552029 17.0472497 13.4375 17.25 C13.4375 16.26 13.4375 15.27 13.4375 14.25 C12.62482666 14.25523682 11.81215332 14.26047363 10.97485352 14.26586914 C7.31657678 14.28656994 3.65831233 14.29963803 0 14.3125 C-1.27939453 14.32087891 -2.55878906 14.32925781 -3.87695312 14.33789062 C-5.69936523 14.34272461 -5.69936523 14.34272461 -7.55859375 14.34765625 C-8.68450928 14.35289307 -9.8104248 14.35812988 -10.97045898 14.36352539 C-13.5625 14.25 -13.5625 14.25 -14.5625 13.25 C-14.66123816 11.25200428 -14.69221799 9.25042842 -14.6875 7.25 C-14.69007813 6.156875 -14.69265625 5.06375 -14.6953125 3.9375 C-14.37618397 -2.52015975 -4.96501956 0.01983033 0 0 Z M-2.5625 24.25 C-2.2325 25.57 -1.9025 26.89 -1.5625 28.25 C0.56243141 28.27693575 2.68745912 28.29636628 4.8125 28.3125 C6.58753906 28.32990234 6.58753906 28.32990234 8.3984375 28.34765625 C11.35671521 28.46466593 11.35671521 28.46466593 13.4375 27.25 C13.1075 26.26 12.7775 25.27 12.4375 24.25 C7.4875 24.25 2.5375 24.25 -2.5625 24.25 Z M15.4375 36.25 C16.4375 38.25 16.4375 38.25 16.4375 38.25 Z " fill="#F37820" transform="translate(158.5625,149.75)"/>
<path d="M0 0 C1.2478125 -0.00128906 2.495625 -0.00257813 3.78125 -0.00390625 C5.0909375 -0.00003906 6.400625 0.00382813 7.75 0.0078125 C9.0596875 0.00394531 10.369375 0.00007812 11.71875 -0.00390625 C13.59046875 -0.00197266 13.59046875 -0.00197266 15.5 0 C16.64984375 0.00112793 17.7996875 0.00225586 18.984375 0.00341797 C21.75 0.1328125 21.75 0.1328125 23.75 1.1328125 C23.45703125 3.15104167 23.1640625 5.16927083 22.87109375 7.1875 C22.5815703 9.21421917 22.5815703 9.21421917 23.75 11.1328125 C27.05 10.4728125 30.35 9.8128125 33.75 9.1328125 C33.75 11.1128125 33.75 13.0928125 33.75 15.1328125 C34.41 15.1328125 35.07 15.1328125 35.75 15.1328125 C35.77886984 19.11196409 35.79675406 23.09108903 35.8125 27.0703125 C35.82087891 28.20662109 35.82925781 29.34292969 35.83789062 30.51367188 C35.84111328 31.59326172 35.84433594 32.67285156 35.84765625 33.78515625 C35.85289307 34.78538818 35.85812988 35.78562012 35.86352539 36.81616211 C35.75 39.1328125 35.75 39.1328125 34.75 40.1328125 C32.73035801 40.20525303 30.70832876 40.21658438 28.6875 40.1953125 C27.03041016 40.18177734 27.03041016 40.18177734 25.33984375 40.16796875 C24.48519531 40.15636719 23.63054687 40.14476562 22.75 40.1328125 C22.42 39.4728125 22.09 38.8128125 21.75 38.1328125 C21.19368896 38.45660889 20.63737793 38.78040527 20.06420898 39.11401367 C15.86011323 40.96480928 11.34005139 40.4600028 6.8125 40.4453125 C5.82314453 40.46142578 4.83378906 40.47753906 3.81445312 40.49414062 C-5.56452032 40.50044794 -5.56452032 40.50044794 -9.25 37.1328125 C-11.60297917 32.69423816 -11.55660785 28.01759825 -10.25 23.2578125 C-9.29760307 20.23828134 -8.43079703 19.26358317 -5.8359375 17.38671875 C-0.79854343 15.62527703 3.83374108 15.8121776 9.125 15.9453125 C10.65833984 15.96561523 10.65833984 15.96561523 12.22265625 15.98632812 C14.73232049 16.02151033 17.2408809 16.07073711 19.75 16.1328125 C19.75 15.1428125 19.75 14.1528125 19.75 13.1328125 C11.83 13.6278125 11.83 13.6278125 3.75 14.1328125 C3.75 14.4628125 3.75 14.7928125 3.75 15.1328125 C2.31589632 15.38235255 0.87739928 15.60673892 -0.5625 15.8203125 C-1.36300781 15.94792969 -2.16351563 16.07554687 -2.98828125 16.20703125 C-5.25 16.1328125 -5.25 16.1328125 -7.03125 15.0390625 C-8.78424137 12.2972042 -8.54136902 10.16525199 -8.4375 6.9453125 C-8.41042969 5.85863281 -8.38335937 4.77195313 -8.35546875 3.65234375 C-8.32066406 2.82089844 -8.28585937 1.98945313 -8.25 1.1328125 C-5.4522735 -0.26605075 -3.12611108 0.00306653 0 0 Z M-6.25 13.1328125 C-2.25 14.1328125 -2.25 14.1328125 -2.25 14.1328125 Z M3.75 24.1328125 C3.75 25.1228125 3.75 26.1128125 3.75 27.1328125 C6.63415883 28.57489191 9.16721528 28.22676137 12.375 28.1953125 C14.15777344 28.18177734 14.15777344 28.18177734 15.9765625 28.16796875 C17.34941406 28.15056641 17.34941406 28.15056641 18.75 28.1328125 C19.41 26.8128125 20.07 25.4928125 20.75 24.1328125 C15.14 24.1328125 9.53 24.1328125 3.75 24.1328125 Z " fill="#F37820" transform="translate(390.25,149.8671875)"/>
<path d="M0 0 C5.93042453 0.05542453 5.93042453 0.05542453 8.0625 2.1875 C9.77983546 1.92900833 11.48736238 1.60438836 13.1875 1.25 C20.73257346 -0.17139448 27.20097078 -0.69638446 34.0625 3.1875 C37.77630724 6.54368136 39.88437434 9.93006198 40.28369141 14.99072266 C40.42361623 18.59784828 40.56182347 22.20484445 40.6875 25.8125 C40.7390625 27.07835937 40.790625 28.34421875 40.84375 29.6484375 C40.88757813 30.84984375 40.93140625 32.05125 40.9765625 33.2890625 C41.0173291 34.39588379 41.0580957 35.50270508 41.10009766 36.64306641 C41.0625 39.1875 41.0625 39.1875 40.0625 40.1875 C37.70936445 40.26021741 35.35416332 40.27120868 33 40.25 C31.70964844 40.24097656 30.41929687 40.23195312 29.08984375 40.22265625 C28.09082031 40.21105469 27.09179688 40.19945312 26.0625 40.1875 C24.97277833 34.60267644 25.02555305 29.29347619 25.125 23.625 C25.13827292 19.73908869 25.13827292 19.73908869 24.0625 14.1875 C17.6275 14.6825 17.6275 14.6825 11.0625 15.1875 C9.07684442 22.26139802 8.92347019 28.83349798 9.08984375 36.125 C9.0625 39.1875 9.0625 39.1875 8.0625 40.1875 C5.87610547 40.26008946 3.68749611 40.27123783 1.5 40.25 C-0.29630859 40.23646484 -0.29630859 40.23646484 -2.12890625 40.22265625 C-3.05574219 40.21105469 -3.98257812 40.19945312 -4.9375 40.1875 C-6.15969174 36.52092477 -6.09975591 33.12712394 -6.10546875 29.30859375 C-6.10879715 28.54072037 -6.11212555 27.77284698 -6.11555481 26.98170471 C-6.12061295 25.36028644 -6.12296348 23.73885779 -6.12280273 22.11743164 C-6.12499484 19.63084951 -6.14317723 17.1447071 -6.16210938 14.65820312 C-6.16504235 13.08333485 -6.16702779 11.50846447 -6.16796875 9.93359375 C-6.17515427 9.18774521 -6.18233978 8.44189667 -6.18974304 7.67344666 C-6.1649033 2.09539992 -6.04600808 0.28790515 0 0 Z " fill="#F37820" transform="translate(284.9375,149.8125)"/>
<path d="M0 0 C1.2478125 -0.00128906 2.495625 -0.00257813 3.78125 -0.00390625 C5.0909375 -0.00003906 6.400625 0.00382813 7.75 0.0078125 C9.0596875 0.00394531 10.369375 0.00007812 11.71875 -0.00390625 C13.59046875 -0.00197266 13.59046875 -0.00197266 15.5 0 C16.64984375 0.00112793 17.7996875 0.00225586 18.984375 0.00341797 C21.75 0.1328125 21.75 0.1328125 23.75 1.1328125 C23.45703125 3.15104167 23.1640625 5.16927083 22.87109375 7.1875 C22.5815703 9.21421917 22.5815703 9.21421917 23.75 11.1328125 C24.41 11.4628125 25.07 11.7928125 25.75 12.1328125 C24.43 12.4628125 23.11 12.7928125 21.75 13.1328125 C21.75 14.7828125 21.75 16.4328125 21.75 18.1328125 C12.51 18.4628125 3.27 18.7928125 -6.25 19.1328125 C-5.25 17.1328125 -5.25 17.1328125 -2.25 16.1328125 C-0.54983156 16.05103136 1.15336297 16.02531749 2.85546875 16.03515625 C3.83837891 16.03837891 4.82128906 16.04160156 5.83398438 16.04492188 C7.37022461 16.05749023 7.37022461 16.05749023 8.9375 16.0703125 C10.49114258 16.07708008 10.49114258 16.07708008 12.07617188 16.08398438 C14.63417266 16.0957724 17.19205733 16.11222735 19.75 16.1328125 C19.75 15.1428125 19.75 14.1528125 19.75 13.1328125 C11.83 13.6278125 11.83 13.6278125 3.75 14.1328125 C3.75 14.4628125 3.75 14.7928125 3.75 15.1328125 C2.31589632 15.38235255 0.87739928 15.60673892 -0.5625 15.8203125 C-1.36300781 15.94792969 -2.16351563 16.07554687 -2.98828125 16.20703125 C-5.25 16.1328125 -5.25 16.1328125 -7.03125 15.0390625 C-8.78424137 12.2972042 -8.54136902 10.16525199 -8.4375 6.9453125 C-8.41042969 5.85863281 -8.38335937 4.77195313 -8.35546875 3.65234375 C-8.32066406 2.82089844 -8.28585937 1.98945313 -8.25 1.1328125 C-5.4522735 -0.26605075 -3.12611108 0.00306653 0 0 Z M-6.25 13.1328125 C-2.25 14.1328125 -2.25 14.1328125 -2.25 14.1328125 Z " fill="#F37820" transform="translate(390.25,149.8671875)"/>
<path d="M0 0 C0.33 0 0.66 0 1 0 C1 2.31 1 4.62 1 7 C1.81267334 6.99476318 2.62534668 6.98952637 3.46264648 6.98413086 C7.12092322 6.96343006 10.77918767 6.95036197 14.4375 6.9375 C15.71689453 6.92912109 16.99628906 6.92074219 18.31445312 6.91210938 C20.13686523 6.90727539 20.13686523 6.90727539 21.99609375 6.90234375 C23.12200928 6.89710693 24.2479248 6.89187012 25.40795898 6.88647461 C28 7 28 7 29 8 C29.04063832 9.66617115 29.042721 11.33388095 29 13 C28.31897217 13.00410889 27.63794434 13.00821777 26.9362793 13.01245117 C23.85246794 13.04533323 20.77064674 13.11596953 17.6875 13.1875 C16.61564453 13.19330078 15.54378906 13.19910156 14.43945312 13.20507812 C13.41142578 13.23408203 12.38339844 13.26308594 11.32421875 13.29296875 C10.37635498 13.3086792 9.42849121 13.32438965 8.4519043 13.34057617 C5.74267991 13.79236879 5.74267991 13.79236879 4.16723633 16.54418945 C3.78204834 17.35460693 3.39686035 18.16502441 3 19 C1.68 18.67 0.36 18.34 -1 18 C-1 18.99 -1 19.98 -1 21 C-1.66 20.67 -2.32 20.34 -3 20 C-2.09744744 16.38978976 -1.12352752 15.09398833 1.875 12.8125 C6.88985236 10.08615362 11.91445157 10.7972322 17.4375 11.25 C18.45521484 11.31574219 19.47292969 11.38148438 20.52148438 11.44921875 C23.0163658 11.61320157 25.50802029 11.7972497 28 12 C28 11.01 28 10.02 28 9 C27.18732666 9.00523682 26.37465332 9.01047363 25.53735352 9.01586914 C21.87907678 9.03656994 18.22081233 9.04963803 14.5625 9.0625 C13.28310547 9.07087891 12.00371094 9.07925781 10.68554688 9.08789062 C8.86313477 9.09272461 8.86313477 9.09272461 7.00390625 9.09765625 C5.87799072 9.10289307 4.7520752 9.10812988 3.59204102 9.11352539 C1 9 1 9 0 8 C-0.14115161 5.32941149 -0.04247107 2.67567762 0 0 Z " fill="#F37820" transform="translate(144,155)"/>
<path d="M0 0 C3.96 0 7.92 0 12 0 C13.92896406 4.82241015 14.21939191 7.26253299 14.125 12.3125 C14.10695313 13.56675781 14.08890625 14.82101563 14.0703125 16.11328125 C14.04710937 17.06589844 14.02390625 18.01851562 14 19 C14.66 19.33 15.32 19.66 16 20 C16.33 19.34 16.66 18.68 17 18 C17 19.32 17 20.64 17 22 C15.35 22.66 13.7 23.32 12 24 C12 16.74 12 9.48 12 2 C5.565 2.495 5.565 2.495 -1 3 C-0.67 2.01 -0.34 1.02 0 0 Z M13 20 C14 22 14 22 14 22 Z " fill="#F37820" transform="translate(331,133)"/>
<path d="M0 0 C2.39902739 3.59854109 2.35134864 5.65606928 2.5625 9.9375 C2.82371204 15.54206674 2.82371204 15.54206674 4 21 C3.34 21.33 2.68 21.66 2 22 C0.94647157 24.30965848 -0.05719096 26.6429774 -1 29 C-2.11622836 25.65131493 -1.83969179 24.60259205 -1.0625 21.25 C0.35904633 14.14226837 0.17538066 7.21983703 0 0 Z " fill="#F37820" transform="translate(298,53)"/>
<path d="M0 0 C0.66 0.99 1.32 1.98 2 3 C0.02 5.97 0.02 5.97 -2 9 C-1.34 9 -0.68 9 0 9 C0.33 8.01 0.66 7.02 1 6 C1 6.66 1 7.32 1 8 C1.66 8.33 2.32 8.66 3 9 C-1.455 11.97 -1.455 11.97 -6 15 C-3 4.28571429 -3 4.28571429 0 0 Z " fill="#F37820" transform="translate(197,28)"/>
<path d="M0 0 C0.99 0.66 1.98 1.32 3 2 C3 2.66 3 3.32 3 4 C3.66 4.33 4.32 4.66 5 5 C3.68 5.33 2.36 5.66 1 6 C1 7.65 1 9.3 1 11 C-1 8 -1 8 -1 6 C-5.62 6 -10.24 6 -15 6 C-15 5.67 -15 5.34 -15 5 C-10.38 5 -5.76 5 -1 5 C-0.67 3.35 -0.34 1.7 0 0 Z " fill="#F37820" transform="translate(411,157)"/>
<path d="M0 0 C-1.38188453 3.21043882 -2.92421903 5.04936365 -5.625 7.25 C-6.57246094 8.03117188 -6.57246094 8.03117188 -7.5390625 8.828125 C-8.02117188 9.21484375 -8.50328125 9.6015625 -9 10 C-9.33 9.01 -9.66 8.02 -10 7 C-9.34 7 -8.68 7 -8 7 C-7.7525 6.401875 -7.505 5.80375 -7.25 5.1875 C-5.55294333 2.21765083 -3.56508774 0 0 0 Z " fill="#F37820" transform="translate(54,4)"/>
<path d="M0 0 C0.33 0 0.66 0 1 0 C0.95875 1.299375 0.9175 2.59875 0.875 3.9375 C0.85944948 8.83591302 1.7507282 13.28176811 3 18 C2.01 17.67 1.02 17.34 0 17 C-1.33431286 11.99632677 -2.37905675 4.7581135 0 0 Z " fill="#F37820" transform="translate(444,156)"/>
<path d="M0 0 C0.33 0.66 0.66 1.32 1 2 C1.99 2 2.98 2 4 2 C4.66 1.34 5.32 0.68 6 0 C5.46274105 3.37705625 4.88935377 6.696686 4 10 C2 9 2 9 0.875 6.6875 C0 4 0 4 0 0 Z " fill="#F37820" transform="translate(96,171)"/>
<path d="M0 0 C-1.485 2.475 -1.485 2.475 -3 5 C-4.32 4.67 -5.64 4.34 -7 4 C-7 4.99 -7 5.98 -7 7 C-7.66 6.67 -8.32 6.34 -9 6 C-8.3125 3.625 -8.3125 3.625 -7 1 C-2.71428571 -1.35714286 -2.71428571 -1.35714286 0 0 Z " fill="#F37820" transform="translate(150,169)"/>
<path d="M0 0 C2.64465038 3.1254959 3.84414715 6.08788267 5 10 C3.02 9.01 1.04 8.02 -1 7 C-0.67 4.69 -0.34 2.38 0 0 Z " fill="#F37820" transform="translate(100,19)"/>
<path d="M0 0 C0 1.66666667 0 3.33333333 0 5 C-1.65 5 -3.3 5 -5 5 C-5 4.67 -5 4.34 -5 4 C-6.65 3.67 -8.3 3.34 -10 3 C-6.64781163 0.76520776 -4.01177204 0 0 0 Z " fill="#F37820" transform="translate(240,0)"/>
<path d="M0 0 C0.66 0.33 1.32 0.66 2 1 C1.67 1.99 1.34 2.98 1 4 C-2.5625 5.1875 -2.5625 5.1875 -6 6 C-3.375 1.125 -3.375 1.125 0 0 Z " fill="#F37820" transform="translate(484,170)"/>
<path d="M0 0 C1.9451 2.91765 2.45276317 4.62537285 3 8 C1.68 8 0.36 8 -1 8 C-1.93065133 5.39417629 -2.14917407 4.35801776 -1.0625 1.75 C-0.711875 1.1725 -0.36125 0.595 0 0 Z " fill="#F37820" transform="translate(362,40)"/>
<path d="M0 0 C0.99 0.495 0.99 0.495 2 1 C2 1.66 2 2.32 2 3 C2.99 3 3.98 3 5 3 C5.33 4.98 5.66 6.96 6 9 C0.42857143 3.85714286 0.42857143 3.85714286 0 0 Z " fill="#F37820" transform="translate(82,175)"/>
<path d="M0 0 C0.66 0.33 1.32 0.66 2 1 C1.25 2.9375 1.25 2.9375 0 5 C-2.125 5.75 -2.125 5.75 -4 6 C-3.67 4.68 -3.34 3.36 -3 2 C-2.01 2 -1.02 2 0 2 C0 1.34 0 0.68 0 0 Z " fill="#F37820" transform="translate(347,151)"/>
<path d="M0 0 C0.66 0.99 1.32 1.98 2 3 C0.7260411 5.03833424 -0.61061923 7.03852126 -2 9 C-2.66 9 -3.32 9 -4 9 C-2.94124926 5.59687262 -1.99097846 2.98646769 0 0 Z " fill="#F37820" transform="translate(197,28)"/>
<path d="M0 0 C3.0916909 2.52956528 3.90931332 5.22454612 5 9 C2.5 7.875 2.5 7.875 0 6 C-0.3125 2.8125 -0.3125 2.8125 0 0 Z " fill="#F37820" transform="translate(108,36)"/>
<path d="M0 0 C1.98 0 3.96 0 6 0 C6 0.33 6 0.66 6 1 C4.02 1 2.04 1 0 1 C0 0.67 0 0.34 0 0 Z " fill="#F37820" transform="translate(399,176)"/>
<path d="" fill="#F37820" transform="translate(0,0)"/>
<path d="" fill="#F37820" transform="translate(0,0)"/>
<path d="" fill="#F37820" transform="translate(0,0)"/>
<path d="" fill="#F37820" transform="translate(0,0)"/>
<path d="" fill="#F37820" transform="translate(0,0)"/>
<path d="" fill="#F37820" transform="translate(0,0)"/>
</svg>
